<?xml version="1.0" encoding="UTF-8" standalone="no"?>
<svg width="100px" height="100px" viewBox="0 0 100 100" version="1.1" xmlns="http://www.w3.org/2000/svg" xmlns:xlink="http://www.w3.org/1999/xlink" xmlns:sketch="http://www.bohemiancoding.com/sketch/ns">
    <!-- Generator: Sketch 3.0.4 (8053) - http://www.bohemiancoding.com/sketch -->
    <title>columns</title>
    <desc>Created with Sketch.</desc>
    <defs></defs>
    <g id="Page-1" stroke="none" stroke-width="1" fill="none" fill-rule="evenodd" sketch:type="MSPage">
        <g id="columns" sketch:type="MSArtboardGroup" fill="#000000">
            <path d="M77.5714286,6.65537518 C72.9065958,5.59175435 67.9794118,5.78642115 63.2857139,7.50661012 L63.2857143,7.50661054 L63.2857143,82.5233662 C65.3172642,80.9945002 67.6851248,79.2143999 70.4871795,77.0954583 C72.766918,75.3730619 75.1665739,73.5292426 77.5714286,71.558223 L77.5714286,6.65537518 Z M84.7142857,9.37842162 C93.425792,14.1508703 99.9230769,23.622547 99.9230769,35.4850687 C99.9230769,47.3261749 93.0393089,57.1501803 84.7142857,65.2311846 L84.7142857,9.37842162 Z M56.1428571,11.5278899 C53.7322452,13.4289542 51.4762355,15.8510508 49.4615385,18.8409129 C47.1917071,15.4724249 44.615575,12.8246073 41.8571429,10.83112 L41.8571429,10.83112 L41.8571429,87.3758412 C45.2029958,89.9202459 47.2602466,91.5614021 49.4615385,93.7396142 C51.4667231,91.7554532 53.3150978,90.1667757 56.1428571,87.956675 L56.1428571,11.5278899 L56.1428571,11.5278899 Z M34.7142857,7.19181978 C29.9881029,5.67116497 25.0604897,5.66344078 20.4285714,6.90268616 L20.4285714,6.90268616 L20.4285714,70.6789611 C23.1526261,72.9616197 25.8796703,75.0948205 28.4358974,77.0954583 C30.8203124,78.9610952 32.8932211,80.5606864 34.7142857,81.9542133 L34.7142857,7.19181978 L34.7142857,7.19181978 Z M13.2857143,9.94486587 C5.04227738,14.8955632 -1,24.1605375 -1,35.6847986 C-1,47.0480217 5.40865286,56.3989896 13.2857109,64.217923 L13.2857143,9.94486587 L13.2857143,9.94486587 Z" id="Imported-Layers" sketch:type="MSShapeGroup"></path>
        </g>
    </g>
</svg>