<?xml version="1.0" encoding="UTF-8" standalone="no"?>
<svg width="100px" height="100px" viewBox="0 0 100 100" version="1.1" xmlns="http://www.w3.org/2000/svg" xmlns:xlink="http://www.w3.org/1999/xlink" xmlns:sketch="http://www.bohemiancoding.com/sketch/ns">
    <!-- Generator: Sketch 3.0.4 (8053) - http://www.bohemiancoding.com/sketch -->
    <title>columns</title>
    <desc>Created with Sketch.</desc>
    <defs></defs>
    <g id="Page-1" stroke="none" stroke-width="1" fill="none" fill-rule="evenodd" sketch:type="MSPage">
        <g id="columns" sketch:type="MSArtboardGroup" fill="#000000">
            <path d="M78,6.68388284 C73.4342792,5.61466251 68.6091991,5.76302623 64,7.38529294 L64,7.38529294 L64,81.6506756 C65.9447091,80.1862457 68.1947372,78.4929243 70.8333333,76.4961486 C73.1387367,74.7531019 75.5679047,72.8846462 78,70.8846916 L78,6.68388284 Z M85,9.38827437 C93.596768,14.1327613 100,23.5056705 100,35.2365199 C100,46.9447293 93.2175736,56.6640958 85.0000017,64.6641178 L85,9.38827437 Z M57,11.1868833 C54.4684761,13.1141685 52.1017211,15.6114045 50,18.7326685 C47.6238102,15.2037912 44.9088436,12.472571 42,10.4614309 L42,10.4614309 L42,86.3363278 C45.5934065,89.0644247 47.7186338,90.7409203 50,93 C52.0752301,90.9450426 53.9809533,89.3179008 57,86.9695965 L57,11.1868833 L57,11.1868833 Z M35,7.06051831 C30.3564024,5.65035088 25.530733,5.70146388 21,6.95847436 L21,6.95847436 L21,69.9383302 C23.7763483,72.2755335 26.5610663,74.4553936 29.1666667,76.4961486 C31.3617434,78.2148838 33.2903839,79.7059015 35,81.0169014 L35,7.06051831 Z M14,10.0054716 C5.91135741,14.9371262 0,24.0798798 0,35.4345661 C0,46.6272979 6.26611451,55.8511071 14,63.5727578 L14,10.0054716 L14,10.0054716 Z" id="Imported-Layers" sketch:type="MSShapeGroup"></path>
        </g>
    </g>
</svg>