<?xml version="1.0" encoding="UTF-8" standalone="no"?>
<svg width="100px" height="100px" viewBox="0 0 100 100" version="1.1" xmlns="http://www.w3.org/2000/svg" xmlns:xlink="http://www.w3.org/1999/xlink" xmlns:sketch="http://www.bohemiancoding.com/sketch/ns">
    <!-- Generator: Sketch 3.2.2 (9983) - http://www.bohemiancoding.com/sketch -->
    <title>csv</title>
    <desc>Created with Sketch.</desc>
    <defs></defs>
    <g id="Page-1" stroke="none" stroke-width="1" fill="none" fill-rule="evenodd" sketch:type="MSPage">
        <g id="csv" sketch:type="MSArtboardGroup" fill="#000000">
            <path d="M70,75 L70,79.9938646 C70,82.7586768 67.758636,85 64.9977375,85 L20.0022625,85 C17.2395892,85 15,82.7550246 15,80.0012051 L15,40.0111647 C15,39.9500222 15.0007795,39.8883577 15.002325,39.8262031 L15.002325,39.8262031 L14.9908854,35.0135634 L19.4523758,30.5658525 L31.5023405,18.5317433 C31.6149715,18.4192605 31.7338225,18.3080059 31.8583327,18.1982119 L35.0513238,15.0150825 L39.8802321,15.0018928 C39.9365065,15.0006342 39.9923815,15 40.0478336,15 L64.9909034,15 C67.7573511,15 70,17.2301197 70,20.0061354 L70,50 L79.9906145,50 C82.7572217,50 85,52.2405846 85,54.9990375 L85,70.0009625 C85,72.7618547 82.768443,75 79.9906145,75 L70,75 L70,75 Z M65,50 L65,22.9959374 C65,21.3373097 63.6567259,20 61.9997133,20 L40.021658,20 L40.021658,20 L40.036447,35.9920499 C40.0384854,38.1962294 38.2515593,39.9965514 36.0452237,40.0001944 L20.0000034,40.0266878 L20.0000034,77.0096056 C20.0000034,78.6570226 21.3453503,80 23.0049199,80 L61.9950835,80 C63.6532395,80 65,78.6586731 65,77.0040626 L65,75 L45.0093855,75 C42.2427783,75 40,72.7594154 40,70.0009625 L40,54.9990375 C40,52.2381453 42.231557,50 45.0093855,50 L65,50 Z M22.5406901,35.014974 L35.030816,22.5970703 L35.0097624,32.0087814 C35.0060487,33.6689359 33.6693486,35.0147802 32.0021362,35.0148092 L22.5406901,35.014974 Z M40,54.9990375 C40,52.2381453 42.231557,50 45.0093855,50 L79.9906145,50 C82.7572217,50 85,52.2405846 85,54.9990375 L85,70.0009625 C85,72.7618547 82.768443,75 79.9906145,75 L45.0093855,75 C42.2427783,75 40,72.7594154 40,70.0009625 L40,54.9990375 Z M77.7233785,57 C77.2478219,57 76.8533398,57.2932842 76.6391578,57.8135877 L74.0024201,64.4818162 L71.3608422,57.8049978 C71.1490803,57.2945114 70.7170862,57.0012271 70.1761859,57.0012271 C69.8434172,57.0012271 69.5469506,57.131303 69.3230881,57.3791834 C69.1113262,57.6111111 69,57.8896698 69,58.1804998 C69,58.4087461 69.0278316,58.5817715 69.0859148,58.717983 L72.4559535,67.0060241 C72.8443853,67.8711513 73.4966118,68 73.8499516,68 L74.1488383,68 C74.5021781,68 75.1544046,67.8711513 75.5513069,66.9851629 L78.9092449,58.726573 C78.9721684,58.5805444 79,58.407519 79,58.1817269 C79,57.9780232 78.9431268,57.6749219 78.6757018,57.3804105 C78.5220232,57.206158 78.2303969,57 77.7233785,57 Z M62.8246252,59.670303 C63.1692621,59.4618182 63.6303304,59.3563636 64.1961869,59.3563636 C64.8586814,59.3563636 65.4501528,59.4509091 65.9484791,59.6339394 C66.2104497,59.7333333 66.4165333,59.7793939 66.5993305,59.7793939 C66.8030854,59.7793939 67.1011498,59.7066667 67.3584631,59.3624242 C67.5296172,59.1345455 67.6204337,58.8715152 67.6204337,58.6012121 C67.6204337,58.070303 67.34682,57.6630303 66.8706156,57.4860606 C66.0229952,57.1636364 65.079901,57 64.0657837,57 C62.8735264,57 61.8966672,57.3284848 61.1619852,57.9757576 C60.4529181,58.6024242 60.0919808,59.4181818 60.0919808,60.4012121 C60.0919808,61.3430303 60.4599039,62.1115152 61.1934216,62.689697 C61.4996362,62.9224242 61.8500946,63.1151515 62.2366468,63.2606061 C62.5859409,63.3927273 62.9410566,63.5115152 63.2996653,63.6157576 C63.6501237,63.7175758 63.9970892,63.8121212 64.3382332,63.8993939 C64.6444477,63.9781818 64.9110755,64.0654545 65.1311308,64.16 C65.3709795,64.2690909 65.6574007,64.4424242 65.6574007,64.6545455 C65.6574007,64.9418182 65.6574007,65.6157576 63.948188,65.6157576 C63.432397,65.6157576 62.9806433,65.5636364 62.6045699,65.4593939 C62.2180178,65.3527273 61.9385824,65.2630303 61.7674283,65.1842424 C61.1340416,64.8909091 60.6392083,64.9612121 60.2910784,65.3769697 C60.100131,65.6012121 60,65.8715152 60,66.16 C60,66.4327273 60.0803377,66.6848485 60.2316984,66.8909091 C60.3644302,67.070303 60.5251055,67.2048485 60.7183816,67.2957576 C61.7557852,67.7624242 62.8816766,68 64.0657837,68 C65.2056469,68 66.1499054,67.7054545 66.8717799,67.1212121 C67.6204337,66.5115152 68,65.7090909 68,64.7357576 C68,63.7163636 67.6285839,62.9175758 66.8973948,62.3648485 C66.590016,62.1321212 66.2418862,61.9406061 65.8576626,61.7987879 C65.5083685,61.670303 65.1497599,61.5575758 64.7818367,61.4618182 C64.4302139,61.3709091 64.0879057,61.2836364 63.7549119,61.2024242 C63.4603406,61.129697 63.19837,61.0375758 62.9631786,60.9236364 C62.4473876,60.6884848 62.4473876,60.430303 62.4473876,60.3066667 C62.4473876,60.0218182 62.5614903,59.8315152 62.8246252,59.670303 Z M59,66.0293081 C59,65.740855 58.8989547,65.4742177 58.7131243,65.2621199 C58.3623693,64.857316 57.7839721,64.8270163 57.3914053,65.0294182 C57.0743322,65.2039445 56.746806,65.344535 56.4192799,65.45119 C56.1103368,65.5505729 55.7247387,65.6014764 55.271777,65.6014764 C54.3170732,65.6014764 53.5981417,65.3130234 53.0731707,64.7203614 C52.5865273,64.167695 52.3507549,63.4417144 52.3507549,62.498788 C52.3507549,61.5558616 52.5865273,60.831093 53.0731707,60.2784266 C53.311266,60.0081534 53.6132404,59.7924196 53.9721254,59.6372851 C54.7189315,59.3124725 55.8106852,59.352468 56.4181185,59.5475981 C56.7479675,59.654253 57.0743322,59.7960555 57.4041812,59.9766417 C57.7653891,60.1620758 58.3635308,60.139048 58.7084785,59.7415161 C58.8977933,59.5257823 58.9988386,59.261569 58.9988386,58.9767519 C58.9988386,58.7295064 58.941928,58.5101366 58.8304297,58.3259145 C58.71777,58.1404804 58.5261324,57.980498 58.1660859,57.7744601 C57.8826945,57.6144777 57.5017422,57.4520714 57.0034843,57.2775452 C56.4808362,57.093323 55.8583043,57 55.1521487,57 C53.6689895,57 52.4320557,57.4993389 51.4808362,58.4822609 C50.4970964,59.4882107 50,60.8395769 50,62.5 C50,64.1616351 50.4982578,65.5130013 51.4761905,66.5141031 C51.9407666,67.0001102 52.4982578,67.3734024 53.1289199,67.6267078 C53.7514518,67.8751653 54.4297329,68 55.14518,68 C55.85482,68 56.4785134,67.906677 57.0023229,67.7224548 C57.5029036,67.5467166 57.9767712,67.3297708 58.3902439,67.0910093 C58.7781649,66.8873953 59,66.5007713 59,66.0293081 Z M48.5720911,65 L48.4291737,65 C48.044688,65 47.6956155,65.1482596 47.4186341,65.4293081 C47.1441821,65.7103567 47,66.0648904 47,66.5431887 C47,66.9351096 47.1441821,67.2909325 47.4211636,67.5732703 C47.6956155,67.8517404 48.044688,68 48.4291737,68 L48.5720911,68 C48.9578415,68 49.306914,67.8517404 49.5788364,67.5719811 C49.8545531,67.2922217 50,66.9363988 50,66.4555221 C50,66.062312 49.8545531,65.706489 49.5813659,65.4280189 C49.306914,65.1482596 48.9578415,65 48.5720911,65 Z" id="Rectangle-20" sketch:type="MSShapeGroup"></path>
        </g>
    </g>
</svg>