<?xml version="1.0" encoding="UTF-8" standalone="no"?>
<svg width="100px" height="100px" viewBox="0 0 100 100" version="1.1" xmlns="http://www.w3.org/2000/svg" xmlns:xlink="http://www.w3.org/1999/xlink" xmlns:sketch="http://www.bohemiancoding.com/sketch/ns">
    <!-- Generator: Sketch 3.1.1 (8761) - http://www.bohemiancoding.com/sketch -->
    <title>equalizer</title>
    <desc>Created with Sketch.</desc>
    <defs></defs>
    <g id="Page-1" stroke="none" stroke-width="1" fill="none" fill-rule="evenodd" sketch:type="MSPage">
        <g id="equalizer" sketch:type="MSArtboardGroup" fill="#000000">
            <path d="M18.1228911,55.9057692 L18.1228911,2.88461538 C18.1228911,1.29038462 16.8351593,0 15.2484899,0 C13.6618205,0 12.3740887,1.29038462 12.3740887,2.88461538 L12.3740887,55.9057692 C7.56234118,57.1865385 4,61.5807692 4,66.8076923 C4,72.0346154 7.56234118,76.4288462 12.3740887,77.7096154 L12.3740887,97.1153846 C12.3740887,98.7096154 13.6618205,100 15.2484899,100 C16.8351593,100 18.1228911,98.7096154 18.1228911,97.1153846 L18.1228911,77.7076923 C22.9346386,76.4269231 26.4969798,72.0326923 26.4969798,66.8057692 C26.4969798,61.5788462 22.9346386,57.1865385 18.1228911,55.9057692 L18.1228911,55.9057692 Z M15.2484899,72.3269231 C12.2150385,72.3269231 9.74880233,69.85 9.74880233,66.8076923 C9.74880233,63.7653846 12.2150385,61.2884615 15.2484899,61.2884615 C18.2819413,61.2884615 20.7481775,63.7653846 20.7481775,66.8076923 C20.7481775,69.85 18.2819413,72.3269231 15.2484899,72.3269231 L15.2484899,72.3269231 Z M52.8648198,30.6769231 L52.8648198,2.88461538 C52.8648198,1.29038462 51.5770881,0 49.9904187,0 C48.4037492,0 47.1160175,1.29038462 47.1160175,2.88461538 L47.1160175,30.675 C42.3042699,31.9576923 38.7419288,36.3596154 38.7419288,41.5942308 C38.7419288,46.8192308 42.3042699,51.2153846 47.1160175,52.4942308 L47.1160175,97.1153846 C47.1160175,98.7096154 48.4037492,100 49.9904187,100 C51.5770881,100 52.8648198,98.7096154 52.8648198,97.1153846 L52.8648198,52.4961538 C57.6765674,51.2153846 61.2389086,46.8211538 61.2389086,41.5961538 C61.2389086,36.3615385 57.6765674,31.9576923 52.8648198,30.6769231 L52.8648198,30.6769231 Z M49.9904187,47.1153846 C46.9569673,47.1153846 44.4907311,44.6403846 44.4907311,41.5961538 C44.4907311,38.5423077 46.955051,36.0596154 49.9865861,36.0576923 L49.9904187,36.0576923 L49.9942512,36.0576923 C53.0257863,36.0596154 55.4901062,38.5442308 55.4901062,41.5961538 C55.4901062,44.6403846 53.02387,47.1153846 49.9904187,47.1153846 L49.9904187,47.1153846 Z M87.6067486,8.27115385 L87.6067486,2.88653846 C87.6067486,1.29230769 86.3190169,0.00192307692 84.7323474,0.00192307692 C83.145678,0.00192307692 81.8579463,1.29230769 81.8579463,2.88653846 L81.8579463,8.27307692 C77.0461987,9.55384615 73.4838575,13.9480769 73.4838575,19.175 C73.4838575,24.4019231 77.0461987,28.7961538 81.8579463,30.0769231 L81.8579463,97.1153846 C81.8579463,98.7096154 83.145678,100 84.7323474,100 C86.3190169,100 87.6067486,98.7096154 87.6067486,97.1153846 L87.6067486,30.075 C92.4299938,28.7961538 96,24.4 96,19.1730769 C96,13.9461538 92.4299938,9.54807692 87.6067486,8.27115385 L87.6067486,8.27115385 Z M84.7323474,24.6923077 C81.6988961,24.6923077 79.2326599,22.2153846 79.2326599,19.1730769 C79.2326599,16.1307692 81.6988961,13.6538462 84.7323474,13.6538462 C87.7753801,13.6538462 90.2511977,16.1307692 90.2511977,19.1730769 C90.2511977,22.2153846 87.7753801,24.6923077 84.7323474,24.6923077 L84.7323474,24.6923077 Z" id="Shape" sketch:type="MSShapeGroup"></path>
        </g>
    </g>
</svg>