<?xml version="1.0" encoding="UTF-8" standalone="no"?>
<svg width="100px" height="100px" viewBox="0 0 100 100" version="1.1" xmlns="http://www.w3.org/2000/svg" xmlns:xlink="http://www.w3.org/1999/xlink" xmlns:sketch="http://www.bohemiancoding.com/sketch/ns">
    <!-- Generator: Sketch 3.2.2 (9983) - http://www.bohemiancoding.com/sketch -->
    <title>group</title>
    <desc>Created with Sketch.</desc>
    <defs></defs>
    <g id="Page-1" stroke="none" stroke-width="1" fill="none" fill-rule="evenodd" sketch:type="MSPage">
        <g id="group" sketch:type="MSArtboardGroup" fill="#000000">
            <path d="M15,20.0061354 C15,17.2413232 17.2301197,15 20.0061354,15 L79.9938646,15 C82.7586768,15 85,17.2301197 85,20.0061354 L85,79.9938646 C85,82.7586768 82.7698803,85 79.9938646,85 L20.0061354,85 C17.2413232,85 15,82.7698803 15,79.9938646 L15,20.0061354 Z M20,22.9959374 C20,21.3413269 21.3373097,20 22.9959374,20 L77.0040626,20 C78.6586731,20 80,21.3373097 80,22.9959374 L80,77.0040626 C80,78.6586731 78.6626903,80 77.0040626,80 L22.9959374,80 C21.3413269,80 20,78.6626903 20,77.0040626 L20,22.9959374 Z M15,25 L20,25 L20,35 L15,35 L15,25 Z M15,45 L20,45 L20,55 L15,55 L15,45 Z M15,65 L20,65 L20,75 L15,75 L15,65 Z M80,65 L85,65 L85,75 L80,75 L80,65 Z M80,45 L85,45 L85,55 L80,55 L80,45 Z M80,25 L85,25 L85,35 L80,35 L80,25 Z M25,15 L35,15 L35,20 L25,20 L25,15 Z M45,15 L55,15 L55,20 L45,20 L45,15 Z M65,15 L75,15 L75,20 L65,20 L65,15 Z M25,80 L35,80 L35,85 L25,85 L25,80 Z M45,80 L55,80 L55,85 L45,85 L45,80 Z M65,80 L75,80 L75,85 L65,85 L65,80 Z" id="Rectangle-20" sketch:type="MSShapeGroup"></path>
        </g>
    </g>
</svg>