<?xml version="1.0" encoding="UTF-8" standalone="no"?>
<svg width="100px" height="100px" viewBox="0 0 100 100" version="1.1" xmlns="http://www.w3.org/2000/svg" xmlns:xlink="http://www.w3.org/1999/xlink" xmlns:sketch="http://www.bohemiancoding.com/sketch/ns">
    <!-- Generator: Sketch 3.2.2 (9983) - http://www.bohemiancoding.com/sketch -->
    <title>image</title>
    <desc>Created with Sketch.</desc>
    <defs></defs>
    <g id="Page-1" stroke="none" stroke-width="1" fill="none" fill-rule="evenodd" sketch:type="MSPage">
        <g id="image" sketch:type="MSArtboardGroup" fill="#000000">
            <path d="M15,20.0061354 C15,17.2413232 17.2301197,15 20.0061354,15 L79.9938646,15 C82.7586768,15 85,17.2301197 85,20.0061354 L85,79.9938646 C85,82.7586768 82.7698803,85 79.9938646,85 L20.0061354,85 C17.2413232,85 15,82.7698803 15,79.9938646 L15,20.0061354 Z M20,22.9959374 C20,21.3413269 21.3373097,20 22.9959374,20 L77.0040626,20 C78.6586731,20 80,21.3373097 80,22.9959374 L80,77.0040626 C80,78.6586731 78.6626903,80 77.0040626,80 L22.9959374,80 C21.3413269,80 20,78.6626903 20,77.0040626 L20,22.9959374 Z M26.0975177,74.9967537 C24.990415,74.996559 24.7264853,74.3634663 25.5076579,73.5830577 L33.5852727,65.5133434 C34.3666049,64.7327755 35.5337489,64.8214632 36.1903687,65.7090091 L38.8867928,69.3537369 C39.5442154,70.242368 40.6713635,70.2952821 41.4014641,69.475164 L53.6756983,55.687582 C54.4070903,54.8660132 55.6297094,54.8226686 56.4214367,55.6055444 L74.6193427,73.5999966 C75.4043801,74.3762572 75.1391265,75.0053822 74.0361919,75.0051882 L26.0975177,74.9967537 Z M37.5,45 C41.6421356,45 45,41.6421356 45,37.5 C45,33.3578644 41.6421356,30 37.5,30 C33.3578644,30 30,33.3578644 30,37.5 C30,41.6421356 33.3578644,45 37.5,45 Z" id="Rectangle-20" sketch:type="MSShapeGroup"></path>
        </g>
    </g>
</svg>