<?xml version="1.0" encoding="UTF-8" standalone="no"?>
<svg width="100px" height="100px" viewBox="0 0 100 100" version="1.1" xmlns="http://www.w3.org/2000/svg" xmlns:xlink="http://www.w3.org/1999/xlink" xmlns:sketch="http://www.bohemiancoding.com/sketch/ns">
    <!-- Generator: Sketch 3.2.2 (9983) - http://www.bohemiancoding.com/sketch -->
    <title>link</title>
    <desc>Created with Sketch.</desc>
    <defs></defs>
    <g id="Page-1" stroke="none" stroke-width="1" fill="none" fill-rule="evenodd" sketch:type="MSPage">
        <g id="link" sketch:type="MSArtboardGroup" fill="#000000">
            <path d="M38.2204809,54.8689712 L35.2069522,51.8554424 L35.2069522,51.8554424 L38.2294894,54.8599985 L44.1940884,48.9190668 C46.3829714,46.7388692 49.9265342,46.7379309 51.6705966,48.4592285 L57.6867628,42.4430616 L56.1320885,40.8977103 C52.1200962,36.9097771 45.6262592,36.9087527 41.6158819,40.8836774 L32.8799995,49.5423328 L35.2069522,51.8554424 L32.8869201,49.5354104 L32.8869201,49.5354104 L18.7528276,63.6695029 C13.8768751,68.5454553 13.8730099,76.4638828 18.7545635,81.3454365 C23.6371905,86.2280635 31.5499022,86.2277673 36.4304971,81.3471724 L49.0399065,68.7377631 L43.7446307,63.4424873 L31.5967293,75.5903888 C29.6625736,77.5245444 26.5236941,77.5215507 24.5946307,75.5924873 C22.6616341,73.6594907 22.6629686,70.5241494 24.5967293,68.5903888 L38.2313748,54.9557433 L38.1824664,54.9068349 L38.2204809,54.8689712 Z M48.5773125,51.5737288 C50.7302852,53.6460543 54.1666125,53.6253765 56.2929933,51.4989956 L75.001139,32.7908499 C77.1583272,30.6336618 77.15277,27.1506266 75.0010717,24.9989283 C72.8537516,22.8516082 69.3608112,22.8471998 67.2091501,24.998861 L56.2361363,35.9718747 L51.343296,31.0790344 L63.6695029,18.7528276 C68.5500978,13.8722327 76.4628095,13.8719365 81.3454365,18.7545635 C86.2269901,23.6361172 86.2231249,31.5545447 81.3471724,36.4304971 L60.1304971,57.6471724 C55.2548721,62.5227974 47.3533024,62.5280578 42.4694889,57.6603373 L41.7601606,58.3696657 L41.7572285,58.366751 L48.5773115,51.5737298 Z" id="Rectangle-22" sketch:type="MSShapeGroup"></path>
        </g>
    </g>
</svg>