<?xml version="1.0" encoding="UTF-8" standalone="no"?>
<svg width="100px" height="100px" viewBox="0 0 100 100" version="1.1" xmlns="http://www.w3.org/2000/svg" xmlns:xlink="http://www.w3.org/1999/xlink" xmlns:sketch="http://www.bohemiancoding.com/sketch/ns">
    <!-- Generator: Sketch 3.2.2 (9983) - http://www.bohemiancoding.com/sketch -->
    <title>source</title>
    <desc>Created with Sketch.</desc>
    <defs></defs>
    <g id="Page-1" stroke="none" stroke-width="1" fill="none" fill-rule="evenodd" sketch:type="MSPage">
        <g id="source" sketch:type="MSArtboardGroup" fill="#000000">
            <path d="M50,85 C69.3299662,85 85,69.3299662 85,50 C85,30.6700338 69.3299662,15 50,15 C30.6700338,15 15,30.6700338 15,50 C15,69.3299662 30.6700338,85 50,85 Z M50,80 C66.5685425,80 80,66.5685425 80,50 C80,33.4314575 66.5685425,20 50,20 C33.4314575,20 20,33.4314575 20,50 C20,66.5685425 33.4314575,80 50,80 Z M63.4347826,37 L45.1723913,55 L37.5636957,47.5 L33,52 L45.1723913,64 L68,41.5 L63.4347826,37 Z" id="Oval-8" sketch:type="MSShapeGroup"></path>
        </g>
    </g>
</svg>