<?xml version="1.0" encoding="UTF-8" standalone="no"?>
<svg width="100px" height="100px" viewBox="0 0 100 100" version="1.1" xmlns="http://www.w3.org/2000/svg" xmlns:xlink="http://www.w3.org/1999/xlink" xmlns:sketch="http://www.bohemiancoding.com/sketch/ns">
    <!-- Generator: Sketch 3.2.2 (9983) - http://www.bohemiancoding.com/sketch -->
    <title>tap-action</title>
    <desc>Created with Sketch.</desc>
    <defs></defs>
    <g id="Page-1" stroke="none" stroke-width="1" fill="none" fill-rule="evenodd" sketch:type="MSPage">
        <g id="tap-action" sketch:type="MSArtboardGroup" fill="#000000">
            <path d="M15.5922499,43.5544705 C18.6175065,27.3033526 32.8719523,15 50,15 C69.3299662,15 85,30.6700338 85,50 C85,69.3299662 69.3299662,85 50,85 C33.2538111,85 19.2545223,73.2391229 15.8112398,57.5264751 L45.0134549,57.5668403 L45.0134556,70.5015431 C45.0134557,71.6105841 45.6806572,71.9008928 46.503692,71.1618561 L68.5440519,51.3709134 C69.3650414,50.6337133 69.356483,49.4477138 68.520368,48.7260114 L46.5970365,29.8026344 C45.7634402,29.0831062 45.0831163,29.3911573 45.0831163,30.4955417 L45.0831163,43.5544705 L15.5922499,43.5544705 Z M15.0113782,49.0987321 C15.0038079,49.398235 15,49.6986728 15,50 C15,50.3447988 15.0049858,50.6884331 15.0148894,51.0308347 L15.0113782,49.0987321 Z" id="Oval-8" sketch:type="MSShapeGroup"></path>
        </g>
    </g>
</svg>