<?xml version="1.0" encoding="UTF-8" standalone="no"?>
<svg width="100px" height="100px" viewBox="0 0 100 100" version="1.1" xmlns="http://www.w3.org/2000/svg" xmlns:xlink="http://www.w3.org/1999/xlink" xmlns:sketch="http://www.bohemiancoding.com/sketch/ns">
    <!-- Generator: Sketch 3.2.2 (9983) - http://www.bohemiancoding.com/sketch -->
    <title>text-align-right</title>
    <desc>Created with Sketch.</desc>
    <defs></defs>
    <g id="Page-1" stroke="none" stroke-width="1" fill="none" fill-rule="evenodd" sketch:type="MSPage">
        <g id="text-align-right" sketch:type="MSArtboardGroup" fill="#000000">
            <path d="M45,20 C45,17.2385763 47.2362844,15 50.0053221,15 L79.9946779,15 C82.759041,15 85,17.2441952 85,20 C85,22.7614237 82.7637156,25 79.9946779,25 L50.0053221,25 C47.240959,25 45,22.7558048 45,20 Z M15,40 C15,37.2385763 17.2301197,35 20.0061354,35 L79.9938646,35 C82.7586768,35 85,37.2441952 85,40 C85,42.7614237 82.7698803,45 79.9938646,45 L20.0061354,45 C17.2413232,45 15,42.7558048 15,40 Z M35,60 C35,57.2385763 37.245531,55 40.0000319,55 L79.9999681,55 C82.7614095,55 85,57.2441952 85,60 C85,62.7614237 82.754469,65 79.9999681,65 L40.0000319,65 C37.2385905,65 35,62.7558048 35,60 Z M25,80 C25,77.2385763 27.2425656,75 29.9995286,75 L80.0004714,75 C82.7616348,75 85,77.2441952 85,80 C85,82.7614237 82.7574344,85 80.0004714,85 L29.9995286,85 C27.2383652,85 25,82.7558048 25,80 Z" id="Rectangle-15" sketch:type="MSShapeGroup"></path>
        </g>
    </g>
</svg>