<?xml version="1.0" encoding="UTF-8" standalone="no"?>
<svg width="100px" height="100px" viewBox="0 0 100 100" version="1.1" xmlns="http://www.w3.org/2000/svg" xmlns:xlink="http://www.w3.org/1999/xlink" xmlns:sketch="http://www.bohemiancoding.com/sketch/ns">
    <!-- Generator: Sketch 3.2.2 (9983) - http://www.bohemiancoding.com/sketch -->
    <title>text</title>
    <desc>Created with Sketch.</desc>
    <defs></defs>
    <g id="Page-1" stroke="none" stroke-width="1" fill="none" fill-rule="evenodd" sketch:type="MSPage">
        <g id="text" sketch:type="MSArtboardGroup" fill="#000000">
            <path d="M15,20 C15,17.2385763 17.231557,15 20.0093855,15 L54.9906145,15 C57.7572217,15 60,17.2441952 60,20 C60,22.7614237 57.768443,25 54.9906145,25 L20.0093855,25 C17.2427783,25 15,22.7558048 15,20 Z M15,35 C15,32.2385763 17.2301197,30 20.0061354,30 L79.9938646,30 C82.7586768,30 85,32.2441952 85,35 C85,37.7614237 82.7698803,40 79.9938646,40 L20.0061354,40 C17.2413232,40 15,37.7558048 15,35 Z M15,50 C15,47.2385763 17.2301197,45 20.0061354,45 L79.9938646,45 C82.7586768,45 85,47.2441952 85,50 C85,52.7614237 82.7698803,55 79.9938646,55 L20.0061354,55 C17.2413232,55 15,52.7558048 15,50 Z M15,65 C15,62.2385763 17.2301197,60 20.0061354,60 L79.9938646,60 C82.7586768,60 85,62.2441952 85,65 C85,67.7614237 82.7698803,70 79.9938646,70 L20.0061354,70 C17.2413232,70 15,67.7558048 15,65 Z M15,80 C15,77.2385763 17.2425656,75 19.9995286,75 L70.0004714,75 C72.7616348,75 75,77.2441952 75,80 C75,82.7614237 72.7574344,85 70.0004714,85 L19.9995286,85 C17.2383652,85 15,82.7558048 15,80 Z" id="Rectangle-15" sketch:type="MSShapeGroup"></path>
        </g>
    </g>
</svg>