<?xml version="1.0" encoding="UTF-8" standalone="no"?>
<svg width="100px" height="100px" viewBox="0 0 100 100" version="1.1" xmlns="http://www.w3.org/2000/svg" xmlns:xlink="http://www.w3.org/1999/xlink" xmlns:sketch="http://www.bohemiancoding.com/sketch/ns">
    <!-- Generator: Sketch 3.2.2 (9983) - http://www.bohemiancoding.com/sketch -->
    <title>title</title>
    <desc>Created with Sketch.</desc>
    <defs></defs>
    <g id="Page-1" stroke="none" stroke-width="1" fill="none" fill-rule="evenodd" sketch:type="MSPage">
        <g id="title" sketch:type="MSArtboardGroup" fill="#000000">
            <path d="M85,34.6947531 L80.4299005,34.6947531 C80.0200513,30.6562104 79.1287697,26.6345478 77.7686878,24.7003798 C76.4057988,22.7676185 74.9418511,21.5930511 73.3754411,21.1358841 C71.799206,20.6970038 69.9913779,20.4620903 67.9351139,20.4620903 L56.8705887,20.4620903 L56.8705887,72.8660852 C56.8705887,74.7678998 57.0656882,76.2364608 57.4502727,77.2816149 C57.8306465,78.3141089 58.7261389,79.1299761 60.143768,79.7024898 C61.5445541,80.2792235 63.6092397,80.5886904 66.3364212,80.5886904 L66.3364212,85 L33.6691931,85 L33.6691931,80.5886904 C37.6680302,80.5886904 40.2478345,79.9908567 41.4015881,78.8416092 C42.5567453,77.6712618 43.1308149,75.6892671 43.1308149,72.8646786 L43.1308149,20.4620903 L33.4067212,20.4620903 C30.6795396,20.4620903 28.4225618,20.6829371 26.6287697,21.1175974 C24.8349775,21.5438177 23.253128,22.7352652 21.8958534,24.6722464 C20.534368,26.6134477 19.7567774,30.6548038 19.5616779,34.6933465 L15,34.6933465 L15,15 L84.9985964,15 L84.9985964,34.6947531 L85,34.6947531 Z" id="Shape-2" sketch:type="MSShapeGroup"></path>
        </g>
    </g>
</svg>