<?xml version="1.0" encoding="UTF-8" standalone="no"?>
<svg width="100px" height="100px" viewBox="0 0 100 100" version="1.1" xmlns="http://www.w3.org/2000/svg" xmlns:xlink="http://www.w3.org/1999/xlink" xmlns:sketch="http://www.bohemiancoding.com/sketch/ns">
    <!-- Generator: Sketch 3.2.2 (9983) - http://www.bohemiancoding.com/sketch -->
    <title>underline</title>
    <desc>Created with Sketch.</desc>
    <defs></defs>
    <g id="Page-1" stroke="none" stroke-width="1" fill="none" fill-rule="evenodd" sketch:type="MSPage">
        <g id="underline" sketch:type="MSArtboardGroup" fill="#000000">
            <path d="M60.828863,18.864627 C63.4123468,18.864627 65.416703,19.2491288 66.8378244,20.0222668 C67.7496422,20.526667 68.5012757,21.4362412 69.105047,22.7468549 C69.7047109,24.0574685 70.0004356,24.2445809 70.0004356,27.3040576 L70.0004356,55.1949087 C70.0004356,62.4549643 69.4007717,67.552714 68.1850146,70.479889 C66.9692576,73.407064 65.1415147,75.6975371 62.701786,77.3637115 C60.2620574,79.0257516 57.3048105,79.860906 53.8341527,79.860906 C50.807082,79.860906 48.305744,79.203532 46.3137096,77.8929183 C44.3298899,76.5864391 42.9046611,74.9368023 42.0380235,72.9522769 C41.1713859,70.9718859 40.7360134,66.916012 40.7360134,60.8011931 L40.7360134,27.3081921 C40.7360134,23.4094265 40.9331632,22.970114 41.3315701,21.994389 C41.7176551,21.018664 42.3789284,20.2537948 43.3153899,19.695647 C44.2436368,19.1416337 45.9563756,18.864627 48.4412845,18.864627 L50.0965213,18.864627 L50.0965213,15 L17,15 L17,18.864627 C19.7067023,18.8315516 21.5714108,19.1002894 22.5735889,19.6708405 C23.5839816,20.2413915 24.290435,21.0103951 24.7011637,21.965448 C25.1118925,22.9246353 25.3172568,23.3680822 25.3172568,27.3040576 L25.3172568,60.7970586 C25.3172568,66.4777627 26.1674653,71.0008269 27.8719895,74.3621168 C29.5765138,77.7234068 32.4885805,80.4810702 36.6164043,82.6309728 C39.643475,84.2103243 43.9232684,85 49.4763209,85 C56.1301263,85 61.3792395,83.5033371 65.2195532,80.5141456 C69.0680814,77.5208198 71.4872736,74.238084 72.4853445,70.6783415 C73.4710934,67.1144646 73.9762898,61.3138621 73.9762898,53.2765342 L73.9762898,27.3040576 C73.9762898,24.5133188 74.1816541,24.5825409 74.5841683,23.5034552 C75.1222229,21.9571791 75.9929678,20.7954049 77.1840812,20.0222668 C78.383409,19.2491288 79.8825689,18.864627 81.6774535,18.864627 L83,18.864627 L83,15 L60.828863,15 L60.828863,18.864627 Z" id="Shape" sketch:type="MSShapeGroup"></path>
            <rect id="Rectangle-path" sketch:type="MSShapeGroup" x="15" y="90" width="70" height="5"></rect>
        </g>
    </g>
</svg>