<?xml version="1.0" encoding="UTF-8" standalone="no"?>
<svg width="100px" height="100px" viewBox="0 0 100 100" version="1.1" xmlns="http://www.w3.org/2000/svg" xmlns:xlink="http://www.w3.org/1999/xlink" xmlns:sketch="http://www.bohemiancoding.com/sketch/ns">
    <!-- Generator: Sketch 3.1.1 (8761) - http://www.bohemiancoding.com/sketch -->
    <title>user</title>
    <desc>Created with Sketch.</desc>
    <defs></defs>
    <g id="Page-1" stroke="none" stroke-width="1" fill="none" fill-rule="evenodd" sketch:type="MSPage">
        <g id="user" sketch:type="MSArtboardGroup">
            <g id="tie-user" sketch:type="MSLayerGroup"></g>
            <g id="icon_4632" sketch:type="MSLayerGroup" transform="translate(8.000000, 0.000000)" fill="#000000">
                <path d="M88.3028837,58.9979592 C87.6029767,64.35 85.6117209,68.6061224 80.823907,68.5112245 C71.8642791,68.0561224 75.9726512,53.1418367 67.2657674,48.6591837 C67.3148837,48.8295918 67.3312558,49.0367347 67.2974884,49.2928571 C67.196186,50.0591837 65.639814,49.4571429 65.551814,52.3806122 C65.5037209,53.9673469 67.408,56.1806122 64.2266977,58.1887755 C61.0464186,60.1979592 50.5426977,54.8387755 48.2853953,63.7408163 C53.7659535,65.1204082 51.1986047,68.6193878 53.7393488,73.8153061 C56.795814,80.0622449 60.6852093,82.5867347 56.1010233,80.4530612 C54.4167442,79.6693878 59.7683721,83.9581633 62.2129302,90.6622449 C64.6574884,97.3653061 65.5896744,100.414286 65.5896744,100.414286 L0.335627907,100.414286 C0.335627907,100.414286 -0.183162791,84.1377551 9.19702326,75.7316327 C13.6164651,71.7704082 15.1247442,70.5122449 14.392093,69.9428571 C13.015814,68.8755102 22.6262326,54.1071429 25.8341395,56.2397959 C25.9456744,56.3142857 26.1042791,56.4132653 26.303814,56.5377551 C27.407907,53.1132653 27.227814,49.372449 24.4333023,45.5469388 C23.1552558,43.7969388 22.0777674,41.9183673 21.2141395,39.9530612 C7.40427907,51.3530612 16.5,33.1714286 16.5,33.1714286 C16.5,33.1714286 17.516093,31.3897959 17.5232558,20.1255102 C18.3244651,14.2030612 22.2875349,8.77857143 30.1461395,4.93979592 C29.5997209,4.82755102 29.0266977,4.78061224 28.4342326,4.80816327 L29.031814,2.57959184 C30.1676279,2.5255102 31.1908837,2.78571429 32.1026047,3.26326531 C32.256093,2.0122449 32.7503256,0.86122449 33.7418605,-0.0704081633 L36.8126512,0.594897959 C36.1035349,1.2622449 35.5632558,2.05612245 35.1764651,2.92346939 C45.8531163,-0.0663265306 53.6073488,1.92142857 58.3665116,6.89081633 C65.3512558,16.1602041 66.8851163,16.8459184 66.8851163,16.8459184 C66.8851163,16.8459184 86.6298605,27.0928571 64.416,24.8765306 C64.9306977,25.8806122 65.9488372,27.2938776 65.5896744,27.9540816 C64.6554419,29.6704082 64.2277209,30.5642857 65.8751628,32.8908163 C66.9475349,34.4061224 70.0428837,38.955102 70.7325581,40.2112245 C71.6933953,41.9602041 66.1493953,42.0153061 66.6364651,43.344898 C66.8585116,43.9530612 67.6044651,45.4836735 67.8459535,46.077551 C68.0311628,46.5326531 67.403907,46.8826531 66.919907,47.2061224 C70.8512558,48.2969388 73.8872558,51.2173469 75.4947907,56.7663265 C77.0337674,62.0785714 78.5195349,62.4326531 79.1580465,62.4602041 C80.4903256,62.394898 80.8300465,60.6857143 80.9170233,58.1969388 C81.0142326,57.6795918 82.6964651,57.4316327 84.7153488,57.6428571 C86.7526512,57.8561224 88.3581395,58.4571429 88.303907,58.9877551 L88.3028837,58.9979592 L88.3028837,58.9979592 Z" id="Shape" sketch:type="MSShapeGroup"></path>
            </g>
        </g>
    </g>
</svg>