<?xml version="1.0" encoding="UTF-8" standalone="no"?>
<svg width="100px" height="100px" viewBox="0 0 100 100" version="1.1" xmlns="http://www.w3.org/2000/svg" xmlns:xlink="http://www.w3.org/1999/xlink" xmlns:sketch="http://www.bohemiancoding.com/sketch/ns">
    <!-- Generator: Sketch 3.2.2 (9983) - http://www.bohemiancoding.com/sketch -->
    <title>x 3</title>
    <desc>Created with Sketch.</desc>
    <defs></defs>
    <g id="Page-1" stroke="none" stroke-width="1" fill="none" fill-rule="evenodd" sketch:type="MSPage">
        <g id="x-3" sketch:type="MSArtboardGroup" fill="#000000">
            <path d="M100,50 C100,77.6142375 77.6142375,100 50,100 C22.3857625,100 0,77.6142375 0,50 C0,22.3857625 22.3857625,0 50,0 L50,10 C27.90861,10 10,27.90861 10,50 C10,72.09139 27.90861,90 50,90 C72.09139,90 90,72.09139 90,50 C93.18954,49.9999994 96.5281114,49.9999993 100.000001,49.9999992 Z" id="Oval-2" sketch:type="MSShapeGroup"></path>
            <path d="M100.022565,32.004347 L99.9809704,-0.480970389 L67.495653,-0.522564905 L78.3379569,10.3197391 L48.5978776,40.0598184 L59.4401816,50.9021224 L89.1802609,21.1620431 L100.022565,32.004347 Z" id="Path" sketch:type="MSShapeGroup"></path>
        </g>
    </g>
</svg>