<?xml version="1.0" encoding="UTF-8" standalone="no"?>
<svg width="30px" height="41px" viewBox="0 0 30 41" version="1.1" xmlns="http://www.w3.org/2000/svg" xmlns:xlink="http://www.w3.org/1999/xlink" xmlns:sketch="http://www.bohemiancoding.com/sketch/ns">
    <!-- Generator: Sketch 3.4.2 (15855) - http://www.bohemiancoding.com/sketch -->
    <title>Bulb : Glyph</title>
    <desc>Created with Sketch.</desc>
    <defs></defs>
    <g id="Page-1" stroke="none" stroke-width="1" fill="none" fill-rule="evenodd" sketch:type="MSPage">
        <g id="Artboard" sketch:type="MSArtboardGroup" transform="translate(-444.000000, -848.000000)" stroke="#3E97BD" stroke-width="2">
            <g id="Bulb-:-Glyph" sketch:type="MSLayerGroup" transform="translate(445.000000, 849.000000)">
                <path d="M11,8 L11,20 L19,14 L11,8 Z" id="Path-7" stroke-linejoin="round" sketch:type="MSShapeGroup"></path>
                <path d="M10,35 L18,35" id="Path-7" stroke-linecap="round" sketch:type="MSShapeGroup"></path>
                <path d="M12,39 L16,39" id="Path-7" stroke-linecap="round" sketch:type="MSShapeGroup"></path>
                <path d="M14,1.77635684e-15 C6,1.42108547e-14 0,6 0,14 C0,22 5.6375651,24.2690958 8.05719093,26.5481394 C8,28 8,28 8.0571909,29 C8,30 9,31 10.0298624,31 L18,31 C19,31 20,30 20.0680542,29 C20,28 20,28 20.068055,26.4287324 C22.9486366,24.8880039 28,22 28,14 C28,6 22,1.42108547e-14 14,1.77635684e-15 Z" id="Path-3" sketch:type="MSShapeGroup"></path>
            </g>
        </g>
    </g>
</svg>